<?xml version="1.0" encoding="UTF-8"?>
<svg id="Capa_1" data-name="Capa 1" xmlns="http://www.w3.org/2000/svg" viewBox="0 0 101.95 95.57">
  <defs>
    <style>
      .cls-1 {
        fill: #8dbf22;
      }

      .cls-1, .cls-2, .cls-3, .cls-4, .cls-5 {
        stroke-width: 0px;
      }

      .cls-2 {
        fill: #a4c842;
      }

      .cls-3 {
        fill: #d1e19e;
      }

      .cls-4 {
        fill: #6a982e;
      }

      .cls-5 {
        fill: #476728;
      }
    </style>
  </defs>
  <path class="cls-1" d="m101.95,95.57H0v-.06c0-3.48,2.82-6.31,6.31-6.31h89.33c3.48,0,6.31,2.82,6.31,6.31v.06Z"/>
  <rect class="cls-3" x="6.37" y="31.86" width="89.2" height="57.34"/>
  <path class="cls-5" d="m14.56,31.86c0,3.52-3.26,6.37-7.28,6.37s-7.28-2.85-7.28-6.37h14.56Z"/>
  <path class="cls-2" d="m29.13,31.86c0,3.52-3.26,6.37-7.28,6.37s-7.28-2.85-7.28-6.37h14.56Z"/>
  <path class="cls-5" d="m43.69,31.86c0,3.52-3.26,6.37-7.28,6.37s-7.28-2.85-7.28-6.37h14.56Z"/>
  <path class="cls-2" d="m58.25,31.86c0,3.52-3.26,6.37-7.28,6.37s-7.28-2.85-7.28-6.37h14.56Z"/>
  <path class="cls-2" d="m87.38,31.86c0,3.52-3.26,6.37-7.28,6.37s-7.28-2.85-7.28-6.37h14.56Z"/>
  <path class="cls-5" d="m72.82,31.86c0,3.52-3.26,6.37-7.28,6.37s-7.28-2.85-7.28-6.37h14.56Z"/>
  <path class="cls-5" d="m101.95,31.86c0,3.52-3.26,6.37-7.28,6.37s-7.28-2.85-7.28-6.37h14.56Z"/>
  <polygon class="cls-1" points="0 31.86 14.56 31.86 27.31 0 14.56 0 0 31.86"/>
  <polygon class="cls-3" points="14.56 31.86 29.13 31.86 38.23 0 27.31 0 14.56 31.86"/>
  <polygon class="cls-1" points="29.13 31.86 43.69 31.86 49.15 0 38.23 0 29.13 31.86"/>
  <polygon class="cls-3" points="43.69 31.86 58.25 31.86 58.25 0 49.15 0 43.69 31.86"/>
  <polygon class="cls-1" points="101.95 31.86 87.38 31.86 78.28 0 89.2 0 101.95 31.86"/>
  <polygon class="cls-3" points="87.38 31.86 72.82 31.86 67.36 0 78.28 0 87.38 31.86"/>
  <polygon class="cls-1" points="72.82 31.86 58.25 31.86 58.25 0 67.36 0 72.82 31.86"/>
  <rect class="cls-1" x="12.74" y="44.6" width="44.6" height="25.49"/>
  <polygon class="cls-4" points="57.34 70.09 12.74 70.09 57.34 44.6 57.34 70.09"/>
  <rect class="cls-4" x="66.9" y="44.6" width="22.3" height="20.71"/>
  <rect class="cls-4" x="66.9" y="70.09" width="22.3" height="19.11"/>
  <path class="cls-2" d="m55.72,78.05c.42-5.19-5.42-8.96-11.8-8.96-3.7,0-7,1.22-9.17,3.12-.99-1.88-2.62-3.12-4.48-3.12-1.74,0-3.27,1.1-4.27,2.79-1.24-3.06-4.15-5.2-7.56-5.2-3.98,0-7.3,2.94-8.03,6.83-.57-.49-1.25-.78-1.98-.78-2.16,0-3.83,2.45-3.6,5.33h50.9Z"/>
  <rect class="cls-5" x="4.78" y="78.05" width="50.97" height="11.15"/>
  <rect class="cls-1" x="4.78" y="78.05" width="50.97" height="3.19"/>
</svg>