<?xml version="1.0" encoding="UTF-8"?>
<svg id="Capa_1" data-name="Capa 1" xmlns="http://www.w3.org/2000/svg" viewBox="0 0 93.95 93.95">
  <defs>
    <style>
      .cls-1 {
        fill: #27331a;
      }

      .cls-1, .cls-2, .cls-3, .cls-4, .cls-5 {
        stroke-width: 0px;
      }

      .cls-2 {
        fill: #b9d36f;
      }

      .cls-3 {
        fill: #8dbf22;
      }

      .cls-4 {
        fill: #6a982e;
      }

      .cls-5 {
        fill: #476728;
      }
    </style>
  </defs>
  <rect class="cls-4" x="41.1" y="49.91" width="17.61" height="39.63"/>
  <path class="cls-3" d="m5.87,88.07V2.94c0-1.62-1.31-2.94-2.94-2.94S0,1.31,0,2.94v91.01h91.01c1.62,0,2.94-1.31,2.94-2.94s-1.31-2.94-2.94-2.94H5.87Z"/>
  <rect class="cls-5" x="14.68" y="64.59" width="17.61" height="23.49"/>
  <rect class="cls-2" x="67.52" y="16.15" width="17.61" height="71.93"/>
  <path class="cls-3" d="m69.39,31.8c.59-13.37-9.77-24.7-23.14-25.29-13.37-.59-24.69,9.77-25.29,23.14-.18,4.17.7,8.13,2.4,11.64L2.37,62.33c1.69,5.04,5.05,8.4,10.1,10.07l20.63-20.68c3.26,1.88,6.99,3.04,11.01,3.22,13.37.59,24.7-9.77,25.29-23.14Z"/>
  <path class="cls-2" d="m46.25,6.51c-13.37-.59-24.69,9.77-25.29,23.14-.18,4.17.7,8.13,2.4,11.64L2.37,62.33c.94,2.81,2.42,5.07,4.4,6.84L62.31,13.63c-4.13-4.15-9.75-6.83-16.07-7.11Z"/>
  <path class="cls-4" d="m62.47,31.5c-.42,9.55-8.51,16.95-18.06,16.53-9.55-.42-16.95-8.51-16.53-18.06.42-9.55,8.51-16.95,18.06-16.53,9.55.42,16.95,8.51,16.53,18.06Z"/>
  <path class="cls-3" d="m45.94,13.43c-9.55-.42-17.64,6.98-18.06,16.53-.22,5.06,1.76,9.7,5.09,13.01l24.46-24.46c-2.95-2.96-6.97-4.89-11.48-5.09Z"/>
  <path class="cls-1" d="m23.35,41.29L2.37,62.33c1.69,5.04,5.05,8.4,10.1,10.07l20.63-20.68c-4.21-2.43-7.62-6.07-9.73-10.43Z"/>
  <path class="cls-4" d="m23.35,41.29L2.37,62.33c.94,2.81,2.42,5.07,4.4,6.84l21.3-21.3c-1.92-1.91-3.53-4.12-4.72-6.58Z"/>
  <path class="cls-5" d="m28.63,56.19l4.45-4.47c-4.21-2.43-7.61-6.07-9.73-10.43l-4.82,4.83,10.1,10.07Z"/>
  <path class="cls-3" d="m23.35,41.29l-4.82,4.83,5.65,5.63,3.89-3.89c-1.92-1.91-3.53-4.12-4.72-6.58Z"/>
</svg>